<?xml version="1.0" encoding="UTF-8" standalone="no"?>
<svg
   xmlns:dc="http://purl.org/dc/elements/1.1/"
   xmlns:cc="http://creativecommons.org/ns#"
   xmlns:rdf="http://www.w3.org/1999/02/22-rdf-syntax-ns#"
   xmlns:svg="http://www.w3.org/2000/svg"
   xmlns="http://www.w3.org/2000/svg"
   width="100%"
   height="100%"
   viewBox="0 0 64 64"
   version="1.1"
   xml:space="preserve"
   style="fill-rule:evenodd;clip-rule:evenodd;stroke-linecap:round;stroke-linejoin:round;stroke-miterlimit:2;"
   id="svg27">
  <metadata
   id="metadata33">
    <rdf:RDF>
      <cc:Work
   rdf:about="">
        <dc:format>image/svg+xml</dc:format>

        <dc:type
   rdf:resource="http://purl.org/dc/dcmitype/StillImage" />

      </cc:Work>

    </rdf:RDF>

  </metadata>

  <defs
   id="defs31" />

  
  <path
   d="M41.722,23.085c4.179,4.179 4.179,10.965 0,15.145c-4.179,4.179 -10.965,4.179 -15.145,0c-4.179,-4.18 -4.179,-10.966 0,-15.145c4.18,-4.179 10.966,-4.179 15.145,0Z"
   style="fill:none;stroke:#222a33;stroke-width:1.5px;"
   id="path3" />

  <path
   d="M25.867,31.273l6.905,-0.493"
   style="fill:none;stroke:#222a33;stroke-width:1.5px;"
   id="path5" />

  <path
   d="M27.666,31.145c0,0 1.14,-3.155 4.099,-4.354c2.222,-0.899 6.992,1.067 9.231,2.102c0.32,0.139 0.564,0.409 0.668,0.742c0.104,0.333 0.058,0.694 -0.126,0.99c-1.033,1.501 -3.24,4.055 -6.82,4.798c-5.182,1.074 -6.925,-2.01 -6.925,-2.01"
   style="fill:none;stroke:#222a33;stroke-width:1.5px;"
   id="path7" />

  <path
   d="M20.699,35.454c-1.788,-5.032 -0.67,-10.869 3.354,-14.893c4.979,-4.978 11.796,-6.444 18.002,-1.891c1.343,0.974 3.195,0.828 4.368,-0.345c1.097,-1.038 2.15,-2.091 2.15,-2.091"
   style="fill:none;stroke:#222a33;stroke-width:1.5px;"
   id="path9" />

  <path
   d="M47.6,25.861c1.788,5.032 0.67,10.868 -3.354,14.893c-4.978,4.978 -11.796,6.444 -18.002,1.891c-1.343,-0.975 -3.195,-0.828 -4.368,0.345c-0.664,0.605 -1.188,1.129 -1.188,1.129"
   style="fill:none;stroke:#222a33;stroke-width:1.5px;"
   id="path11" />

  <path
   d="M23.212,44.96c0,0 0.669,0.669 1.33,1.33c0.709,0.71 0.709,1.859 0,2.569c-0.001,0 -0.001,0 -0.001,0.001c-0.065,0.064 -0.101,0.151 -0.101,0.242c0,0.091 0.036,0.179 0.101,0.243c0.112,0.112 0.253,0.253 0.4,0.4c0.234,0.235 0.366,0.553 0.366,0.885c0,0.332 -0.132,0.651 -0.366,0.886c-0.811,0.81 -2.003,2.003 -2.814,2.813c-0.234,0.235 -0.553,0.367 -0.885,0.367c-0.332,0 -0.65,-0.132 -0.885,-0.367c-0.147,-0.147 -0.288,-0.288 -0.4,-0.4c-0.065,-0.065 -0.152,-0.101 -0.243,-0.101c-0.091,0 -0.178,0.036 -0.242,0.101c-0.001,0 -0.001,0.001 -0.002,0.001c-0.34,0.341 -0.802,0.532 -1.284,0.532c-0.481,0 -0.943,-0.191 -1.284,-0.532c-1.942,-1.942 -5.609,-5.609 -7.576,-7.576c-0.351,-0.351 -0.549,-0.829 -0.549,-1.326c0,-0.498 0.198,-0.975 0.549,-1.326c1.399,-1.399 3.589,-3.589 4.987,-4.987c0.352,-0.352 0.829,-0.55 1.327,-0.55c0.497,0 0.974,0.198 1.326,0.55c1.737,1.736 4.563,4.563 4.563,4.563"
   style="fill:none;stroke:#222a33;stroke-width:1.5px;"
   id="path13" />

  <path
   d="M18.365,45.436c0.126,-0.126 0.17,-0.312 0.114,-0.481c-0.056,-0.169 -0.203,-0.292 -0.38,-0.317c-0.998,-0.142 -2.6,-0.371 -3.796,-0.542c-0.19,-0.027 -0.375,0.077 -0.45,0.254c-0.075,0.177 -0.022,0.382 0.13,0.5c0.787,0.612 1.755,1.365 2.32,1.805c0.12,0.093 0.195,0.234 0.204,0.386c0.01,0.152 -0.047,0.3 -0.154,0.408c0,0 -0.001,0.001 -0.001,0.001c-0.117,0.116 -0.175,0.279 -0.159,0.444c0.017,0.164 0.106,0.312 0.243,0.404c0.479,0.319 1.162,0.774 1.628,1.085c0.3,0.2 0.7,0.161 0.955,-0.095c0.33,-0.33 0.788,-0.788 1.161,-1.161c0.16,-0.16 0.24,-0.384 0.218,-0.609c-0.022,-0.226 -0.145,-0.43 -0.333,-0.556"
   style="fill:none;stroke:#222a33;stroke-width:1.5px;"
   id="path15" />

  <path
   d="M19.205,54.196l1.782,-1.783"
   style="fill:none;stroke:#222a33;stroke-width:1.5px;"
   id="path17" />

  <path
   d="M49.391,18.512c0.836,0 1.637,-0.332 2.228,-0.923c0.729,-0.73 1.455,-1.455 1.856,-1.856c0.175,-0.175 0.175,-0.459 0,-0.634c-0.807,-0.807 -2.928,-2.928 -3.751,-3.751c-0.088,-0.088 -0.208,-0.138 -0.333,-0.138c-0.125,0 -0.245,0.05 -0.333,0.138c-0.414,0.414 -1.157,1.157 -1.896,1.896c-0.576,0.576 -0.9,1.357 -0.9,2.172c0,0.815 0.324,1.596 0.9,2.172"
   style="fill:none;stroke:#222a33;stroke-width:1.5px;"
   id="path19" />

  <path
   d="M47.162,17.588c0,0 0.001,0.001 0.001,0.001"
   style="fill:none;stroke:#222a33;stroke-width:1.5px;"
   id="path21" />

  <path
   d="M56,12.123l-1.1,1.1"
   style="fill:none;stroke:#222a33;stroke-width:1.5px;"
   id="path23" />

  <path
   d="M52.692,8.815l-2.751,2.75"
   style="fill:none;stroke:#222a33;stroke-width:1.5px;"
   id="path25" />

</svg>
