<?xml version="1.0" encoding="utf-8"?>
<!-- Generator: Adobe Illustrator 16.0.0, SVG Export Plug-In . SVG Version: 6.00 Build 0)  -->
<!DOCTYPE svg PUBLIC "-//W3C//DTD SVG 1.1//EN" "http://www.w3.org/Graphics/SVG/1.1/DTD/svg11.dtd">
<svg version="1.1" id="icons" xmlns="http://www.w3.org/2000/svg" xmlns:xlink="http://www.w3.org/1999/xlink" x="0px" y="0px"
	 width="64px" height="64px" viewBox="0 0 64 64" enable-background="new 0 0 64 64" xml:space="preserve">
<g>
	<g>
		<polygon fill="#CCD1D9" points="54,55 54,59 50,59 10,59 10,9 10,5 14,5 14,45 14,55 		"/>
		<polygon fill="#E6E9ED" points="58,45 58,55 54,55 14,55 14,45 20,45 28,45 56.01,45 		"/>
		<polygon fill="#E6E9ED" points="50,59 50,63 6,63 6,9 10,9 10,59 		"/>
		<polygon fill="#656D78" points="56.01,44.99 56.01,45 28,45 28,44.99 34.03,37.24 42,27 		"/>
		<polygon fill="#545C66" points="30,32 34.03,37.24 28,44.99 28,45 20,45 		"/>
		<path fill="#5D9CEC" d="M58,1v44h-1.99v-0.01L42,27l-7.97,10.24L30,32L20,45h-6V5V1H58z M28.01,13.5c0-1.38-1.12-2.5-2.5-2.5
			s-2.5,1.12-2.5,2.5s1.12,2.5,2.5,2.5S28.01,14.88,28.01,13.5z"/>
		<circle fill="#FFCE54" cx="25.51" cy="13.5" r="2.5"/>
		<rect x="10" y="5" fill="#4A89DC" width="4" height="44"/>
		<rect x="6" y="9" fill="#5D9CEC" width="4" height="44"/>
	</g>
	<g>
		<path fill="#E6E9ED" d="M50,64H6c-0.553,0-1-0.447-1-1V9c0-0.553,0.447-1,1-1h3.999c0.553,0,1,0.447,1,1s-0.447,1-1,1H7v52h42v-3
			c0-0.553,0.447-1,1-1s1,0.447,1,1v4C51,63.553,50.553,64,50,64z"/>
	</g>
	<g>
		<path fill="#CCD1D9" d="M54,60H10c-0.553,0-1-0.447-1-1V5c0-0.553,0.447-1,1-1h3.999c0.553,0,1,0.447,1,1s-0.447,1-1,1H11v52h42
			v-3c0-0.553,0.447-1,1-1s1,0.447,1,1v4C55,59.553,54.553,60,54,60z"/>
	</g>
	<g>
		<path fill="#CCD1D9" d="M45,51H27c-0.553,0-1-0.447-1-1s0.447-1,1-1h18c0.553,0,1,0.447,1,1S45.553,51,45,51z"/>
	</g>
	<g>
		<g>
			<path fill="#545C66" d="M34.032,38.242c-0.3,0-0.597-0.134-0.794-0.391l-4.032-5.24c-0.336-0.438-0.255-1.064,0.184-1.402
				c0.438-0.336,1.064-0.254,1.402,0.184l4.032,5.24c0.336,0.438,0.255,1.065-0.184,1.402
				C34.459,38.175,34.245,38.242,34.032,38.242z"/>
		</g>
		<g>
			<path fill="#545C66" d="M19.996,46c-0.213,0-0.427-0.067-0.609-0.207c-0.438-0.337-0.519-0.965-0.183-1.403l10.003-12.997
				c0.337-0.438,0.963-0.521,1.403-0.184c0.438,0.338,0.519,0.965,0.183,1.402L20.79,45.61C20.593,45.866,20.296,46,19.996,46z"/>
		</g>
	</g>
	<g>
		<path fill="#FFCE54" d="M25.503,17.002c-1.93,0-3.5-1.57-3.5-3.5s1.57-3.5,3.5-3.5s3.5,1.57,3.5,3.5S27.433,17.002,25.503,17.002z
			 M25.503,12.002c-0.827,0-1.5,0.672-1.5,1.5c0,0.826,0.673,1.5,1.5,1.5s1.5-0.674,1.5-1.5
			C27.003,12.674,26.33,12.002,25.503,12.002z"/>
	</g>
	<g>
		<path fill="#E6E9ED" d="M14,56c-0.553,0-1-0.447-1-1V45c0-0.553,0.447-1,1-1s1,0.447,1,1v10C15,55.553,14.553,56,14,56z"/>
	</g>
	<g>
		<path fill="#E6E9ED" d="M58,56c-0.553,0-1-0.447-1-1V45c0-0.553,0.447-1,1-1s1,0.447,1,1v10C59,55.553,58.553,56,58,56z"/>
	</g>
	<g>
		<path fill="#E6E9ED" d="M58,56H14c-0.553,0-1-0.447-1-1s0.447-1,1-1h44c0.553,0,1,0.447,1,1S58.553,56,58,56z"/>
	</g>
	<g>
		<g>
			<path fill="#656D78" d="M56.004,45.994c-0.298,0-0.593-0.133-0.79-0.386L41.211,27.614c-0.339-0.437-0.261-1.064,0.175-1.403
				c0.436-0.34,1.063-0.262,1.403,0.175L56.792,44.38c0.339,0.436,0.261,1.064-0.175,1.403
				C56.435,45.926,56.219,45.994,56.004,45.994z"/>
		</g>
		<g>
			<path fill="#656D78" d="M27.997,45.994c-0.215,0-0.431-0.068-0.613-0.211c-0.436-0.339-0.514-0.968-0.175-1.403l14.003-17.994
				c0.339-0.437,0.967-0.515,1.403-0.175c0.436,0.339,0.514,0.967,0.175,1.403L28.787,45.608
				C28.59,45.861,28.295,45.994,27.997,45.994z"/>
		</g>
	</g>
	<g>
		<path fill="#E6E9ED" d="M58,46H14c-0.553,0-1-0.447-1-1V1c0-0.552,0.447-1,1-1h44c0.553,0,1,0.448,1,1v44
			C59,45.553,58.553,46,58,46z M15,44h42V2H15V44z"/>
	</g>
</g>
</svg>
