<?xml version="1.0" encoding="UTF-8"?>
<!DOCTYPE svg PUBLIC "-//W3C//DTD SVG 1.1//EN" "http://www.w3.org/Graphics/SVG/1.1/DTD/svg11.dtd">
<!-- Creator: CorelDRAW -->
<svg xmlns="http://www.w3.org/2000/svg" xml:space="preserve" width="6.82666in" height="6.82666in" style="shape-rendering:geometricPrecision; text-rendering:geometricPrecision; image-rendering:optimizeQuality; fill-rule:evenodd; clip-rule:evenodd"
viewBox="0 0 6.82666 6.82666"
 xmlns:xlink="http://www.w3.org/1999/xlink">
 <defs>
  <style type="text/css">
   <![CDATA[
    .fil0 {fill:none}
    .fil1 {fill:#212121;fill-rule:nonzero}
    .fil2 {fill:#66BB6A;fill-rule:nonzero}
   ]]>
  </style>
 </defs>
 <g id="Layer_x0020_1">
  <metadata id="CorelCorpID_0Corel-Layer"/>
  <g id="_370258704">
   <rect id="_370258824" class="fil0" width="6.82666" height="6.82666"/>
   <rect id="_370259064" class="fil0" x="0.853331" y="0.853331" width="5.12" height="5.12"/>
  </g>
  <path class="fil1" d="M1.51022 1.06384l3.80623 0c0.153768,0 0.293484,0.0628307 0.394705,0.164051 0.10122,0.10122 0.164051,0.240937 0.164051,0.394705l0 3.58146c0,0.153768 -0.0628307,0.293484 -0.164051,0.394705 -0.10122,0.10122 -0.240937,0.164051 -0.394705,0.164051l-3.80623 0c-0.153768,0 -0.293484,-0.0628307 -0.394705,-0.164051 -0.10122,-0.10122 -0.164051,-0.240937 -0.164051,-0.394705l0 -3.58146c0,-0.153768 0.0628307,-0.293484 0.164051,-0.394705 0.10122,-0.10122 0.240937,-0.164051 0.394705,-0.164051zm3.80623 0.213339l-3.80623 0c-0.0948819,0 -0.181217,0.0388937 -0.24387,0.101547 -0.0626535,0.0626535 -0.101547,0.148988 -0.101547,0.24387l0 3.58146c0,0.0948819 0.0388937,0.181217 0.101547,0.24387 0.0626535,0.0626535 0.148988,0.101547 0.24387,0.101547l3.80623 0c0.0948819,0 0.181217,-0.0388937 0.24387,-0.101547 0.0626535,-0.0626535 0.101547,-0.148988 0.101547,-0.24387l0 -3.58146c0,-0.0948819 -0.0388937,-0.181217 -0.101547,-0.24387 -0.0626535,-0.0626535 -0.148988,-0.101547 -0.24387,-0.101547z"/>
  <polygon class="fil1" points="3.52,0.853331 3.52,5.97333 3.30666,5.97333 3.30666,0.853331 "/>
  <g id="_370258944">
   <polygon id="_370259160" class="fil2" points="5.15541,2.58209 4.32416,3.41333 5.15541,4.24457 5.00457,4.39541 4.09791,3.48875 4.02249,3.41333 4.09791,3.33791 5.00457,2.43125 "/>
   <polygon id="_370258968" class="fil2" points="1.82208,2.43125 2.72875,3.33791 2.80417,3.41333 2.72875,3.48875 1.82208,4.39541 1.67125,4.24457 2.5025,3.41333 1.67125,2.58209 "/>
  </g>
 </g>
</svg>
